<?xml version="1.0" encoding="UTF-8" standalone="no"?>
<!DOCTYPE svg PUBLIC "-//W3C//DTD SVG 1.1//EN" "http://www.w3.org/Graphics/SVG/1.1/DTD/svg11.dtd">
<svg width="100%" height="100%" viewBox="0 0 476 476" version="1.1" xmlns="http://www.w3.org/2000/svg" xmlns:xlink="http://www.w3.org/1999/xlink" xml:space="preserve" xmlns:serif="http://www.serif.com/" style="fill-rule:evenodd;clip-rule:evenodd;stroke-linejoin:round;stroke-miterlimit:2;">
    <g transform="matrix(1,0,0,1,-1244.11,-3293.29)">
        <g transform="matrix(0.983731,0,0,0.983731,2860.42,52.8239)">
            <g transform="matrix(1.01654,0,0,1.01654,-2907.72,-53.6975)">
                <path d="M1482.1,3293.29C1350.75,3293.29 1244.11,3399.93 1244.11,3531.28C1244.11,3662.63 1350.75,3769.27 1482.1,3769.27C1613.45,3769.27 1720.09,3662.63 1720.09,3531.28C1720.09,3399.93 1613.45,3293.29 1482.1,3293.29ZM1482.1,3334.12C1590.91,3334.12 1679.25,3422.47 1679.25,3531.28C1679.25,3640.1 1590.91,3728.44 1482.1,3728.44C1373.28,3728.44 1284.94,3640.1 1284.94,3531.28C1284.94,3422.47 1373.28,3334.12 1482.1,3334.12Z" style="fill:white;"/>
            </g>
        </g>
        <g transform="matrix(0.983731,0,0,0.983731,2860.42,52.8239)">
            <g transform="matrix(2.31021,0,0,2.31021,-4837.86,-4400.41)">
                <path d="M1460.37,3394.67C1466.57,3393.87 1471.76,3393.47 1476.76,3393.27C1512.16,3391.47 1518.96,3418.68 1477.76,3420.28L1460.37,3420.88L1460.37,3464.46L1496.34,3464.46L1496.34,3452.07C1516.36,3447.67 1530.55,3436.88 1537.95,3424.88C1542.55,3417.08 1544.74,3408.48 1543.94,3400.08C1542.94,3391.47 1539.15,3383.47 1531.95,3376.47C1518.76,3363.46 1493.55,3355.49 1454.97,3361.06L1460.37,3394.67ZM1476.36,3511.46C1487.55,3511.46 1496.54,3503.07 1496.54,3492.47C1496.54,3481.88 1487.55,3473.28 1476.36,3473.28C1465.36,3473.28 1456.37,3481.88 1456.37,3492.47C1456.37,3503.07 1465.36,3511.46 1476.36,3511.46Z" style="fill:white;fill-rule:nonzero;"/>
            </g>
        </g>
    </g>
</svg>
